<?xml version="1.0" encoding="UTF-8"?>
<svg version="1.1" xmlns="http://www.w3.org/2000/svg" width="135" height="133">
<path d="M0 0 C44.55 0 89.1 0 135 0 C135 43.89 135 87.78 135 133 C90.45 133 45.9 133 0 133 C0 89.11 0 45.22 0 0 Z " fill="#B4121A" transform="translate(0,0)"/>
<path d="M0 0 C1.31569977 0.00278961 2.63139954 0.00557922 3.98696899 0.00845337 C6.75615253 0.01614195 9.52373028 0.04690765 12.29248047 0.09619141 C15.84373134 0.15882081 19.39346092 0.17704388 22.94521141 0.17998314 C26.33869217 0.18580225 29.73166007 0.21799056 33.125 0.25 C34.40200775 0.25647552 35.6790155 0.26295105 36.99472046 0.2696228 C38.16999298 0.29199005 39.3452655 0.3143573 40.55615234 0.33740234 C41.59347504 0.35185394 42.63079773 0.36630554 43.69955444 0.38119507 C44.5128421 0.51579132 45.32612976 0.65038757 46.1640625 0.7890625 C48.59075533 4.42910174 48.43317637 7.086314 48.39111328 11.28979492 C48.39140533 12.05101151 48.39169739 12.81222809 48.39199829 13.59651184 C48.39060493 16.11263426 48.37504357 18.62846056 48.359375 21.14453125 C48.35564489 22.88902118 48.35279791 24.63351321 48.35079956 26.37800598 C48.34316295 30.96969384 48.32351421 35.56125519 48.3013916 40.15289307 C48.28093379 44.83823943 48.27179798 49.52360623 48.26171875 54.20898438 C48.24026835 63.40239933 48.20613205 72.5957204 48.1640625 81.7890625 C47.61620087 81.37633087 47.06833923 80.96359924 46.50387573 80.5383606 C45.7844278 79.99734711 45.06497986 79.45633362 44.32373047 78.89892578 C43.61086884 78.36244415 42.8980072 77.82596252 42.1635437 77.27322388 C30.46336963 68.58849783 17.57000475 65.77457424 3.23828125 65.5703125 C2.53657303 65.55869583 1.83486481 65.54707916 1.1118927 65.53511047 C-2.42543687 65.48569484 -5.95400172 65.48511159 -9.4909668 65.55541992 C-19.72733698 65.62194906 -25.48252761 63.05984741 -32.73413086 55.92016602 C-36.9591222 51.44321643 -39.65445138 47.04717048 -40 40.84375 C-39.5874126 27.41879061 -32.64529504 18.35084645 -23.36627197 9.30032349 C-21.79002111 7.78213398 -21.79002111 7.78213398 -20.28167725 6.00021362 C-14.20537103 -0.34232846 -8.43653793 -0.17820597 0 0 Z " fill="#000000" transform="translate(85.8359375,-0.7890625)"/>
<path d="M0 0 C1.10560953 0.94645015 2.21104395 1.89310487 3.31640625 2.83984375 C3.93201416 3.36698975 4.54762207 3.89413574 5.18188477 4.43725586 C6.77330157 5.80514346 8.35613144 7.18300828 9.9375 8.5625 C19.47064515 15.27261811 33.35734484 17.1187837 44.62109375 17.10546875 C46.06577019 17.11891996 47.5104327 17.13394223 48.95507812 17.15039062 C51.19784664 17.17319844 53.43901541 17.18749159 55.68188477 17.17504883 C70.8709346 17.11341983 70.8709346 17.11341983 76.5871582 22.43383789 C77.053396 22.95067139 77.51963379 23.46750488 78 24 C78.66773437 24.72445312 79.33546875 25.44890625 80.0234375 26.1953125 C80.69246094 27.15050781 80.69246094 27.15050781 81.375 28.125 C82.06722656 29.08792969 82.06722656 29.08792969 82.7734375 30.0703125 C86.71713369 36.27472625 86.9858872 41.71538904 86 49 C82.74381612 58.7793337 76.93162624 66.48376622 69.51901245 73.53703308 C67.94828539 75.01417344 67.94828539 75.01417344 66.40701294 76.77607727 C61.51355089 81.79229667 57.76370077 82.82160628 50.83625793 82.92132568 C49.69017563 82.90088196 48.54409332 82.88043823 47.36328125 82.859375 C46.16567673 82.86132874 44.9680722 82.86328247 43.73417664 82.86529541 C41.21357045 82.8613095 38.69293938 82.84012755 36.17260742 82.80273438 C32.31368911 82.75001624 28.45876659 82.76160427 24.59960938 82.78125 C22.14581201 82.76943966 19.69202903 82.75394153 17.23828125 82.734375 C15.51004875 82.74014557 15.51004875 82.74014557 13.74690247 82.74603271 C12.6719603 82.72381653 11.59701813 82.70160034 10.48950195 82.67871094 C9.54766556 82.66870056 8.60582916 82.65869019 7.63545227 82.64837646 C3.80924139 81.70704844 2.34183435 80.13489277 0 77 C-0.47076174 74.24052738 -0.63795201 72.11041405 -0.56762695 69.36401367 C-0.56835709 68.61225861 -0.56908722 67.86050354 -0.56983948 67.08596802 C-0.56636875 64.61255571 -0.5275358 62.14105011 -0.48828125 59.66796875 C-0.4789512 57.94876636 -0.47183599 56.22955065 -0.46684265 54.5103302 C-0.44778776 49.99397831 -0.39870053 45.47843545 -0.34332275 40.96240234 C-0.29209737 36.35069726 -0.26932162 31.73886094 -0.24414062 27.12695312 C-0.19057988 18.08428072 -0.10528575 9.04220774 0 0 Z " fill="#000000" transform="translate(0,50)"/>
<path d="M0 0 C23.76 0 47.52 0 72 0 C67 5 67 5 64.5703125 7.2890625 C58.61125832 12.98157751 54.03890967 18.81716632 50 26 C49.62746094 26.639375 49.25492188 27.27875 48.87109375 27.9375 C46.55399163 33.42373282 46.21167182 40.11742626 47.7734375 45.828125 C50.58697954 51.9839284 54.62827317 56.00045685 60 60 C60.99 60.78375 61.98 61.5675 63 62.375 C66.80844381 64.43790707 69.69967177 64.70342564 74 65 C74 65.66 74 66.32 74 67 C68.36200626 68.76413788 62.27383341 68.22484276 56.4230957 68.24023438 C54.23282827 68.249802 52.04355745 68.28077822 49.85351562 68.3125 C37.16330711 68.40727069 23.24027915 67.40637097 12 61 C10.98736084 60.42338623 9.97472168 59.84677246 8.93139648 59.25268555 C4.33818846 55.93108536 0.73418452 53.06170414 -0.63290405 47.36065674 C-1.5153582 39.6810066 -1.08533823 32.01761301 -0.75 24.3125 C-0.5025 16.289375 -0.255 8.26625 0 0 Z " fill="#E21A24" transform="translate(0,0)"/>
<path d="M0 0 C0.99 0 1.98 0 3 0 C3 43.89 3 87.78 3 133 C-41.55 133 -86.1 133 -132 133 C-132 131.02 -132 129.04 -132 127 C-131.13358383 127.97447838 -131.13358383 127.97447838 -130.24966431 128.96864319 C-125.32348067 132.04798793 -120.7048106 131.5497846 -115.00537109 131.50170898 C-113.79026352 131.50711197 -112.57515594 131.51251495 -111.32322693 131.51808167 C-107.99868558 131.52843445 -104.67514199 131.52088189 -101.35068846 131.50437045 C-97.87006968 131.4905021 -94.38948045 131.49698182 -90.90884399 131.50050354 C-85.06642309 131.50320355 -79.2242079 131.48974581 -73.38183594 131.46655273 C-66.62602157 131.43991924 -59.87055054 131.43820447 -53.11470163 131.4499411 C-46.61398636 131.46071551 -40.11339536 131.45453613 -33.61268997 131.44038582 C-30.84638153 131.43462554 -28.080164 131.43470892 -25.31385422 131.43945122 C-21.4543836 131.44510433 -17.59525747 131.42591481 -13.73583984 131.40405273 C-12.58563858 131.40855438 -11.43543732 131.41305603 -10.25038147 131.41769409 C-9.20171402 131.40778946 -8.15304657 131.39788483 -7.07260132 131.38768005 C-6.16006781 131.38525016 -5.24753429 131.38282026 -4.30734825 131.38031673 C-1.96790356 131.15887642 -1.96790356 131.15887642 -0.20593071 129.79364872 C1.41132314 127.38821591 1.37212556 125.80485343 1.36749268 122.91394043 C1.37584641 121.33660378 1.37584641 121.33660378 1.3843689 119.72740173 C1.37515411 118.57405838 1.36593933 117.42071503 1.35644531 116.23242188 C1.35951187 114.41019859 1.35951187 114.41019859 1.36264038 112.55116272 C1.36513559 109.21838954 1.35423434 105.88617257 1.33711338 102.55347633 C1.32208354 99.06751887 1.32325154 95.5815655 1.32244873 92.09558105 C1.31875545 86.24123871 1.30378549 80.38701357 1.28125 74.53271484 C1.25237721 67.01675696 1.24202673 59.50089348 1.2375679 51.98488617 C1.23358793 45.52568214 1.22108589 39.06649865 1.20722103 32.60730934 C1.20312227 30.52986828 1.20019651 28.45242795 1.19742584 26.37498474 C1.19162293 22.5058195 1.17694583 18.63671601 1.16113281 14.76757812 C1.15945602 13.0375631 1.15945602 13.0375631 1.15774536 11.27259827 C1.15203522 10.2210405 1.14632507 9.16948273 1.14044189 8.08605957 C1.1359799 6.71336285 1.1359799 6.71336285 1.13142776 5.31293488 C1.09219893 2.84009959 1.09219893 2.84009959 0 0 Z " fill="#BAA5A2" transform="translate(132,0)"/>
<path d="M0 0 C19.55205297 -0.5359446 37.33718221 0.2210447 52.60546875 14.12109375 C55.04648068 17.40996416 54.55388343 20.05358056 54 24 C53.319375 23.29875 52.63875 22.5975 51.9375 21.875 C50.96063223 20.91432341 49.98130515 19.95614348 49 19 C48.53851563 18.53078125 48.07703125 18.0615625 47.6015625 17.578125 C34.61594601 5.3175937 17.00020124 2.83377805 0 1 C0 0.67 0 0.34 0 0 Z " fill="#D91D24" transform="translate(80,65)"/>
<path d="M0 0 C0.57129639 0.64743164 1.14259277 1.29486328 1.73120117 1.96191406 C6.72349779 5.07459553 11.52720972 4.60323534 17.30078125 4.609375 C19.08804878 4.63417938 19.08804878 4.63417938 20.91142273 4.65948486 C24.711834 4.7080154 28.51184494 4.72934818 32.3125 4.75 C34.89129624 4.77815527 37.47007379 4.80808206 40.04882812 4.83984375 C46.36581262 4.91377603 52.68268429 4.96538902 59 5 C59 5.33 59 5.66 59 6 C39.53 6 20.06 6 0 6 C0 4.02 0 2.04 0 0 Z " fill="#9F9F9F" transform="translate(0,127)"/>
<path d="M0 0 C0.33 0 0.66 0 1 0 C1 16.83 1 33.66 1 51 C-1.31 51 -3.62 51 -6 51 C-4.78437378 50.08891479 -4.78437378 50.08891479 -3.54418945 49.15942383 C-0.33078947 45.92052236 -0.37504889 42.82528648 -0.28105164 38.42008972 C-0.28695061 36.94950859 -0.28695061 36.94950859 -0.29296875 35.44921875 C-0.27784744 34.43527542 -0.26272614 33.42133209 -0.24714661 32.37666321 C-0.20425117 29.14671624 -0.19542953 25.91770351 -0.1875 22.6875 C-0.16435723 20.49411576 -0.13899236 18.30075375 -0.11132812 16.10742188 C-0.04845789 10.73827241 -0.01353817 5.36948829 0 0 Z " fill="#D4A39C" transform="translate(134,82)"/>
<path d="M0 0 C10.23 0 20.46 0 31 0 C31 0.33 31 0.66 31 1 C23.08 1.495 23.08 1.495 15 2 C15 2.33 15 2.66 15 3 C12.36 3.33 9.72 3.66 7 4 C7 4.66 7 5.32 7 6 C6.01 5.67 5.02 5.34 4 5 C4 4.34 4 3.68 4 3 C5.32 3 6.64 3 8 3 C8 2.34 8 1.68 8 1 C5.36 1 2.72 1 0 1 C0 0.67 0 0.34 0 0 Z " fill="#AC2425" transform="translate(66,64)"/>
<path d="M0 0 C0.33 0 0.66 0 1 0 C1 2.31 1 4.62 1 7 C-1.31 7 -3.62 7 -6 7 C-5.02433888 5.83040013 -4.044375 4.66438823 -3.0625 3.5 C-2.51722656 2.8503125 -1.97195312 2.200625 -1.41015625 1.53125 C-0.71212891 0.77328125 -0.71212891 0.77328125 0 0 Z " fill="#F9F3F3" transform="translate(134,126)"/>
<path d="M0 0 C2.43929746 1.92576115 4.80090595 3.80090595 7 6 C4.69 6 2.38 6 0 6 C0 4.02 0 2.04 0 0 Z " fill="#EEEEEE" transform="translate(0,127)"/>
</svg>
